<svg width="211" height="35" viewBox="0 0 211 35" fill="none" xmlns="http://www.w3.org/2000/svg">
<path d="M19.655 24.965L15.21 25.07C15 25.07 14.895 24.8717 14.895 24.475C14.895 24.0783 15 23.88 15.21 23.88H17.205C17.695 23.88 17.94 23.6817 17.94 23.285C17.94 23.1217 17.4967 21.7333 16.61 19.12C15.7233 16.4833 15.175 14.8383 14.965 14.185H8.63C6.97333 19.4583 6.145 22.5033 6.145 23.32C6.145 23.67 6.215 23.845 6.355 23.845H8.875C9.13167 23.845 9.26 24.0433 9.26 24.44C9.26 24.8133 9.10833 25 8.805 25L4.29 24.965L0.405 25.07C0.195 25.07 0.09 24.8717 0.09 24.475C0.09 24.0783 0.195 23.88 0.405 23.88H2.155C2.66833 23.88 3.05333 23.6233 3.31 23.11C4.29 20.9867 5.52667 17.825 7.02 13.625C8.53667 9.425 9.56333 6.64833 10.1 5.295C10.66 3.91833 10.94 3.16 10.94 3.02C10.94 2.85667 10.8933 2.68167 10.8 2.495C10.7067 2.30833 10.66 2.19167 10.66 2.145C10.66 1.95833 10.8233 1.865 11.15 1.865C11.5 1.865 11.815 1.78333 12.095 1.62C12.3983 1.45667 12.5967 1.27 12.69 1.06C12.9467 0.546666 13.18 0.289999 13.39 0.289999C13.4833 0.289999 13.6467 0.639999 13.88 1.34L20.915 20.345C21.8017 22.6783 22.42 23.845 22.77 23.845H24.03C24.2633 23.845 24.38 24.0433 24.38 24.44C24.38 24.8133 24.2867 25 24.1 25L19.655 24.965ZM11.815 5.085C11.0917 6.95167 10.1817 9.51833 9.085 12.785H14.475C12.9117 8.04833 12.0717 5.48167 11.955 5.085H11.815ZM41.3996 8.165L44.6196 8.095C44.7596 8.095 44.8296 8.27 44.8296 8.62C44.8296 8.94667 44.7596 9.11 44.6196 9.11H43.3946C43.0679 9.11 42.8579 9.19167 42.7646 9.355C42.3446 10.0783 42.1346 15.3283 42.1346 25.105C42.1346 25.3383 41.9362 25.455 41.5396 25.455C41.1662 25.455 40.8979 25.3733 40.7346 25.21C36.0679 19.6567 32.3112 15.1533 29.4646 11.7H29.3596C29.4296 15.83 29.4996 19.2833 29.5696 22.06C29.5696 23.2733 29.7446 23.88 30.0946 23.88H31.4946C31.6346 23.88 31.7046 24.0667 31.7046 24.44C31.7046 24.79 31.6346 24.965 31.4946 24.965H28.5896L25.4046 25.035C25.2879 25.035 25.2296 24.8717 25.2296 24.545C25.2296 24.195 25.2879 24.02 25.4046 24.02H26.2446C26.9679 24.02 27.3412 23.7867 27.3646 23.32C27.7146 19.54 27.8896 15.1183 27.8896 10.055C27.5162 9.61167 27.2012 9.355 26.9446 9.285C26.6879 9.215 26.2096 9.18 25.5096 9.18C25.3696 9.18 25.2996 9.005 25.2996 8.655C25.2996 8.28167 25.3696 8.095 25.5096 8.095L30.4446 8.165C36.1146 15.3517 39.4512 19.61 40.4546 20.94H40.5246C40.4312 14.8267 40.3496 11.3383 40.2796 10.475C40.2096 9.61167 40.0229 9.18 39.7196 9.18H38.4946C38.3312 9.18 38.2496 9.005 38.2496 8.655C38.2496 8.28167 38.3312 8.095 38.4946 8.095L41.3996 8.165ZM47.2853 8.095L50.0503 8.165C50.307 8.165 50.5286 8.165 50.7153 8.165L54.3553 8.095C54.5186 8.095 54.6003 8.27 54.6003 8.62C54.6003 8.94667 54.507 9.11 54.3203 9.11H52.7103C52.407 9.11 52.2553 9.29667 52.2553 9.67V22.13C52.2553 25.3967 51.952 27.765 51.3453 29.235C50.7386 30.7283 49.817 31.9533 48.5803 32.91C47.3436 33.89 45.9086 34.38 44.2753 34.38C43.9253 34.38 43.5753 34.2983 43.2253 34.135C42.852 33.9717 42.6653 33.6917 42.6653 33.295C42.6653 32.4783 43.1203 31.93 44.0303 31.65C44.9403 32.1633 45.9086 32.42 46.9353 32.42C47.5653 32.42 48.0436 32.105 48.3703 31.475C48.977 30.1917 49.2803 27.1583 49.2803 22.375V11.98C49.2803 10.1133 49.047 9.18 48.5803 9.18H47.3203C47.0403 9.18 46.9003 9.005 46.9003 8.655C46.9003 8.28167 47.0286 8.095 47.2853 8.095ZM71.54 8.165L74.41 8.095C74.5734 8.095 74.655 8.27 74.655 8.62C74.655 8.94667 74.5734 9.11 74.41 9.11H73.675C73.255 9.11 72.9867 9.19167 72.87 9.355C72.7534 9.495 72.6717 9.79833 72.625 10.265C72.4384 14.3717 72.345 17.1833 72.345 18.7C72.345 20.8 71.6684 22.4567 70.315 23.67C68.985 24.86 67.41 25.455 65.59 25.455C63.77 25.455 62.1717 24.895 60.795 23.775C59.4417 22.655 58.765 21.08 58.765 19.05V11.77C58.765 10.0433 58.5084 9.18 57.995 9.18H56.77C56.5834 9.18 56.49 9.005 56.49 8.655C56.49 8.28167 56.5834 8.095 56.77 8.095L60.165 8.165L63.84 8.095C64.0267 8.095 64.12 8.28167 64.12 8.655C64.12 9.005 64.0267 9.18 63.84 9.18H62.755C62.335 9.18 62.055 9.26167 61.915 9.425C61.7984 9.58833 61.74 9.89167 61.74 10.335V18.35C61.74 20.1233 62.1484 21.43 62.965 22.27C63.805 23.11 64.9134 23.53 66.29 23.53C67.6667 23.53 68.7284 23.0633 69.475 22.13C70.245 21.1733 70.63 19.7383 70.63 17.825C70.63 15.1183 70.595 13.0067 70.525 11.49C70.4784 9.95 70.2917 9.18 69.965 9.18H68.565C68.425 9.18 68.355 9.005 68.355 8.655C68.355 8.305 68.425 8.13 68.565 8.13L71.54 8.165ZM105.379 14.99L110.279 14.885C110.466 14.885 110.559 15.0833 110.559 15.48C110.559 15.8767 110.466 16.075 110.279 16.075H109.194C108.611 16.075 108.226 16.1917 108.039 16.425C107.852 16.635 107.759 17.3117 107.759 18.455C107.759 19.575 107.782 20.73 107.829 21.92C107.899 23.0867 107.957 23.9033 108.004 24.37C108.074 24.8133 108.132 25.1983 108.179 25.525C108.249 25.8517 108.284 26.085 108.284 26.225C108.284 26.505 108.097 26.645 107.724 26.645C107.584 26.645 107.351 26.2133 107.024 25.35C106.721 24.4867 106.406 24.055 106.079 24.055C103.932 24.9883 101.681 25.455 99.324 25.455C95.2874 25.455 91.9507 24.4517 89.314 22.445C86.6774 20.4383 85.359 17.65 85.359 14.08C85.359 11.3733 86.0474 9.01667 87.424 7.01C88.824 5.00333 90.5974 3.52167 92.744 2.565C94.8907 1.585 97.224 1.095 99.744 1.095C100.841 1.095 101.774 1.2 102.544 1.41C103.314 1.59667 104.271 1.91167 105.414 2.355V1.62C105.414 1.41 105.577 1.305 105.904 1.305C106.254 1.305 106.429 1.41 106.429 1.62C106.429 3.74333 106.534 5.505 106.744 6.905C106.767 6.99833 106.709 7.08 106.569 7.15C106.452 7.22 106.266 7.255 106.009 7.255C105.776 7.255 105.647 7.15 105.624 6.94L105.379 5.4C103.349 3.55667 101.214 2.635 98.974 2.635C96.3374 2.635 94.1324 3.58 92.359 5.47C90.5857 7.33667 89.699 9.95 89.699 13.31C89.699 16.6467 90.6324 19.2483 92.499 21.115C94.3657 22.9583 96.7107 23.88 99.534 23.88C101.377 23.88 102.777 23.39 103.734 22.41V19.19C103.734 17.1367 103.489 16.11 102.999 16.11H99.289C99.1024 16.11 99.009 15.9233 99.009 15.55C99.009 15.1533 99.1024 14.955 99.289 14.955L105.379 14.99ZM123.74 8.095L126.505 8.165C126.762 8.165 126.983 8.165 127.17 8.165L130.81 8.095C130.973 8.095 131.055 8.27 131.055 8.62C131.055 8.94667 130.962 9.11 130.775 9.11H129.165C128.862 9.11 128.71 9.29667 128.71 9.67V21.255C128.71 23.0283 128.943 23.915 129.41 23.915H131.16C131.347 23.915 131.44 24.1017 131.44 24.475C131.44 24.825 131.37 25 131.23 25L127.17 24.965L123.67 25.07C123.507 25.07 123.425 24.895 123.425 24.545C123.425 24.195 123.495 24.02 123.635 24.02H125.21C125.467 24.02 125.618 23.9733 125.665 23.88C125.712 23.7633 125.735 23.4717 125.735 23.005V17.3H117.265V21.255C117.265 23.0283 117.498 23.915 117.965 23.915H119.715C119.902 23.915 119.995 24.1017 119.995 24.475C119.995 24.825 119.925 25 119.785 25L115.725 24.965L112.225 25.07C112.062 25.07 111.98 24.895 111.98 24.545C111.98 24.195 112.05 24.02 112.19 24.02H113.765C114.022 24.02 114.173 23.9733 114.22 23.88C114.267 23.7633 114.29 23.4717 114.29 23.005V11.98C114.29 10.1133 114.057 9.18 113.59 9.18H112.33C112.05 9.18 111.91 9.005 111.91 8.655C111.91 8.28167 112.038 8.095 112.295 8.095L115.06 8.165C115.317 8.165 115.538 8.165 115.725 8.165L119.365 8.095C119.528 8.095 119.61 8.27 119.61 8.62C119.61 8.94667 119.517 9.11 119.33 9.11H117.72C117.417 9.11 117.265 9.29667 117.265 9.67V15.97H125.735V11.98C125.735 10.1133 125.502 9.18 125.035 9.18H123.775C123.495 9.18 123.355 9.005 123.355 8.655C123.355 8.28167 123.483 8.095 123.74 8.095ZM134.478 8.095L137.243 8.165C137.499 8.165 137.721 8.165 137.908 8.165L141.548 8.095C141.711 8.095 141.793 8.27 141.793 8.62C141.793 8.94667 141.699 9.11 141.513 9.11H139.903C139.599 9.11 139.448 9.29667 139.448 9.67V21.255C139.448 23.0283 139.681 23.915 140.148 23.915H141.898C142.084 23.915 142.178 24.1017 142.178 24.475C142.178 24.825 142.108 25 141.968 25L137.908 24.965L134.408 25.07C134.244 25.07 134.163 24.895 134.163 24.545C134.163 24.195 134.233 24.02 134.373 24.02H135.948C136.204 24.02 136.356 23.9733 136.403 23.88C136.449 23.7633 136.473 23.4717 136.473 23.005V11.98C136.473 10.1133 136.239 9.18 135.773 9.18H134.513C134.233 9.18 134.093 9.005 134.093 8.655C134.093 8.28167 134.221 8.095 134.478 8.095ZM160.802 8.2L165.387 8.095C165.573 8.095 165.667 8.27 165.667 8.62C165.667 8.94667 165.573 9.11 165.387 9.11H164.512C163.998 9.11 163.742 9.54167 163.742 10.405C163.742 10.7783 163.905 12.6217 164.232 15.935C164.582 19.2483 164.803 21.4067 164.897 22.41C165.013 23.4133 165.223 23.915 165.527 23.915H167.067C167.277 23.915 167.382 24.1017 167.382 24.475C167.382 24.825 167.288 25 167.102 25L163.672 24.965L160.137 25.07C159.973 25.07 159.892 24.895 159.892 24.545C159.892 24.195 159.962 24.02 160.102 24.02H161.187C161.817 24.02 162.108 23.7517 162.062 23.215C161.595 16.6817 161.338 12.9833 161.292 12.12H161.152C158.982 16.6933 157.185 20.835 155.762 24.545C155.668 24.755 155.435 24.86 155.062 24.86C154.712 24.86 154.49 24.7433 154.397 24.51C153.767 22.8767 152.063 18.6533 149.287 11.84H149.182C148.832 16.67 148.657 19.5283 148.657 20.415C148.657 21.3017 148.657 21.78 148.657 21.85C148.657 23.2267 148.867 23.915 149.287 23.915H150.372C150.605 23.915 150.722 24.1017 150.722 24.475C150.722 24.825 150.605 25 150.372 25L147.572 24.965L144.212 25.07C144.072 25.07 144.002 24.895 144.002 24.545C144.002 24.195 144.083 24.02 144.247 24.02H145.087C145.647 24.02 145.985 23.9617 146.102 23.845C146.242 23.705 146.335 23.53 146.382 23.32C146.545 22.3633 146.79 20.2867 147.117 17.09C147.467 13.8933 147.642 11.9333 147.642 11.21C147.665 10.4633 147.618 9.93833 147.502 9.635C147.408 9.33167 147.222 9.18 146.942 9.18H145.962C145.822 9.18 145.752 9.005 145.752 8.655C145.752 8.28167 145.822 8.095 145.962 8.095L149.322 8.2H150.967C151.177 8.80667 152.717 13.03 155.587 20.87H155.727C157.36 17.37 159.052 13.1467 160.802 8.2ZM169.512 8.095L172.277 8.165C172.534 8.165 172.755 8.165 172.942 8.165L176.582 8.095C176.745 8.095 176.827 8.27 176.827 8.62C176.827 8.94667 176.734 9.11 176.547 9.11H174.937C174.634 9.11 174.482 9.29667 174.482 9.67V21.255C174.482 23.0283 174.715 23.915 175.182 23.915H176.932C177.119 23.915 177.212 24.1017 177.212 24.475C177.212 24.825 177.142 25 177.002 25L172.942 24.965L169.442 25.07C169.279 25.07 169.197 24.895 169.197 24.545C169.197 24.195 169.267 24.02 169.407 24.02H170.982C171.239 24.02 171.39 23.9733 171.437 23.88C171.484 23.7633 171.507 23.4717 171.507 23.005V11.98C171.507 10.1133 171.274 9.18 170.807 9.18H169.547C169.267 9.18 169.127 9.005 169.127 8.655C169.127 8.28167 169.255 8.095 169.512 8.095ZM183.919 25L180.174 25.07C180.011 25.07 179.929 24.895 179.929 24.545C179.929 24.195 179.988 24.02 180.104 24.02H181.819C182.099 24.02 182.239 23.8217 182.239 23.425V11.945C182.239 10.1017 181.983 9.18 181.469 9.18H180.244C179.988 9.18 179.859 9.005 179.859 8.655C179.859 8.28167 179.964 8.095 180.174 8.095C182.251 8.14167 184.374 8.165 186.544 8.165C188.714 8.165 190.394 8.63167 191.584 9.565C192.798 10.475 193.404 11.6067 193.404 12.96C193.404 14.29 192.926 15.3633 191.969 16.18C191.013 16.9967 189.858 17.4633 188.504 17.58C189.181 18.0467 190.056 18.98 191.129 20.38C191.526 20.9167 192.144 21.535 192.984 22.235C193.824 22.9117 194.769 23.5183 195.819 24.055C195.353 24.9883 194.641 25.455 193.684 25.455C192.728 25.455 191.888 25.105 191.164 24.405C190.441 23.705 189.881 22.935 189.484 22.095C189.088 21.2317 188.644 20.345 188.154 19.435C187.688 18.525 187.244 17.93 186.824 17.65L185.214 17.545V21.605C185.214 23.145 185.448 23.915 185.914 23.915H187.384C187.571 23.915 187.664 24.1017 187.664 24.475C187.664 24.825 187.606 25 187.489 25H183.919ZM185.914 9.215C185.448 9.215 185.214 9.6 185.214 10.37V16.18C185.541 16.25 185.868 16.285 186.194 16.285C187.244 16.285 188.154 15.9933 188.924 15.41C189.694 14.8267 190.079 14.0333 190.079 13.03C190.079 12.0267 189.729 11.14 189.029 10.37C188.353 9.6 187.314 9.215 185.914 9.215ZM197.744 8.095L201.314 8.165H208.559V7.605C208.559 7.465 208.711 7.395 209.014 7.395C209.341 7.395 209.504 7.465 209.504 7.605C209.504 9.44833 209.586 10.7667 209.749 11.56C209.796 11.7 209.668 11.77 209.364 11.77C208.968 11.77 208.769 11.7 208.769 11.56C208.443 10.4867 208.128 9.88 207.824 9.74C206.844 9.39 205.421 9.215 203.554 9.215C203.228 9.23833 203.006 9.33167 202.889 9.495C202.773 9.65833 202.714 9.95 202.714 10.37V16.11C205.538 16.0167 207.089 15.8883 207.369 15.725L207.614 14.255C207.661 14.1383 207.824 14.08 208.104 14.08C208.408 14.08 208.559 14.1617 208.559 14.325C208.466 15.0017 208.419 15.76 208.419 16.6C208.419 17.4167 208.466 18.1633 208.559 18.84C208.559 18.98 208.396 19.05 208.069 19.05C207.766 19.05 207.614 19.0033 207.614 18.91L207.334 17.405C207.054 17.2417 205.514 17.1133 202.714 17.02V21.255C202.714 23.005 202.948 23.88 203.414 23.88H204.534C207.101 23.8333 208.874 23.4717 209.854 22.795L210.029 21.43C210.076 21.29 210.193 21.22 210.379 21.22C210.589 21.22 210.729 21.22 210.799 21.22C210.939 21.2667 211.009 21.3367 211.009 21.43C210.869 22.41 210.799 23.7867 210.799 25.56C210.799 25.6767 210.636 25.735 210.309 25.735C210.006 25.735 209.854 25.6767 209.854 25.56V25H203.624L197.674 25.07C197.511 25.07 197.429 24.895 197.429 24.545C197.429 24.195 197.499 24.02 197.639 24.02H199.214C199.471 24.02 199.623 23.9733 199.669 23.88C199.716 23.7633 199.739 23.4717 199.739 23.005V11.98C199.739 10.1133 199.506 9.18 199.039 9.18H197.779C197.499 9.18 197.359 9.005 197.359 8.655C197.359 8.28167 197.488 8.095 197.744 8.095Z" fill="white"/>
</svg>
